<svg width="18" height="18" viewBox="0 0 18 18" fill="none" xmlns="http://www.w3.org/2000/svg">
<path fill-rule="evenodd" clip-rule="evenodd" d="M9.00156 0.600098C9.31982 0.600098 9.62505 0.726526 9.85009 0.951569C10.0751 1.17661 10.2016 1.48184 10.2016 1.8001V7.8001H16.2016C16.5198 7.8001 16.825 7.92653 17.0501 8.15157C17.2751 8.37661 17.4016 8.68184 17.4016 9.0001C17.4016 9.31836 17.2751 9.62358 17.0501 9.84863C16.825 10.0737 16.5198 10.2001 16.2016 10.2001H10.2016V16.2001C10.2016 16.5184 10.0751 16.8236 9.85009 17.0486C9.62505 17.2737 9.31982 17.4001 9.00156 17.4001C8.6833 17.4001 8.37808 17.2737 8.15303 17.0486C7.92799 16.8236 7.80156 16.5184 7.80156 16.2001V10.2001H1.80156C1.4833 10.2001 1.17808 10.0737 0.953034 9.84863C0.727991 9.62358 0.601563 9.31836 0.601562 9.0001C0.601562 8.68184 0.727991 8.37661 0.953034 8.15157C1.17808 7.92653 1.4833 7.8001 1.80156 7.8001H7.80156V1.8001C7.80156 1.48184 7.92799 1.17661 8.15303 0.951569C8.37808 0.726526 8.6833 0.600098 9.00156 0.600098Z" fill="#FEBA12"/>
</svg>
