<svg width="26" height="24" viewBox="0 0 26 24" fill="none" xmlns="http://www.w3.org/2000/svg">
<path d="M19 22.5H25V19.875C24.9999 19.0567 24.7668 18.2588 24.333 17.5921C23.8991 16.9254 23.2862 16.4231 22.5793 16.1551C21.8724 15.887 21.1067 15.8665 20.3887 16.0963C19.6707 16.3262 19.036 16.795 18.5728 17.4377M19 22.5H7M19 22.5V19.875C19 19.014 18.8488 18.1911 18.5728 17.4377M18.5728 17.4377C18.1272 16.2196 17.3581 15.1755 16.3648 14.4401C15.3715 13.7047 14.1995 13.3116 13 13.3116C11.8005 13.3116 10.6285 13.7047 9.6352 14.4401C8.64189 15.1755 7.87283 16.2196 7.4272 17.4377M7 22.5H1V19.875C1.00005 19.0567 1.2332 18.2588 1.66703 17.5921C2.10086 16.9254 2.71382 16.4231 3.4207 16.1551C4.12758 15.887 4.89325 15.8665 5.61129 16.0963C6.32932 16.3262 6.96403 16.795 7.4272 17.4377M7 22.5V19.875C7 19.014 7.1512 18.1911 7.4272 17.4377M16.6 5.4375C16.6 6.48179 16.2207 7.48331 15.5456 8.22173C14.8705 8.96016 13.9548 9.375 13 9.375C12.0452 9.375 11.1295 8.96016 10.4544 8.22173C9.77928 7.48331 9.4 6.48179 9.4 5.4375C9.4 4.39321 9.77928 3.39169 10.4544 2.65327C11.1295 1.91484 12.0452 1.5 13 1.5C13.9548 1.5 14.8705 1.91484 15.5456 2.65327C16.2207 3.39169 16.6 4.39321 16.6 5.4375ZM23.8 9.375C23.8 10.0712 23.5471 10.7389 23.0971 11.2312C22.647 11.7234 22.0365 12 21.4 12C20.7635 12 20.153 11.7234 19.7029 11.2312C19.2529 10.7389 19 10.0712 19 9.375C19 8.67881 19.2529 8.01113 19.7029 7.51885C20.153 7.02656 20.7635 6.75 21.4 6.75C22.0365 6.75 22.647 7.02656 23.0971 7.51885C23.5471 8.01113 23.8 8.67881 23.8 9.375ZM7 9.375C7 10.0712 6.74714 10.7389 6.29706 11.2312C5.84697 11.7234 5.23652 12 4.6 12C3.96348 12 3.35303 11.7234 2.90294 11.2312C2.45286 10.7389 2.2 10.0712 2.2 9.375C2.2 8.67881 2.45286 8.01113 2.90294 7.51885C3.35303 7.02656 3.96348 6.75 4.6 6.75C5.23652 6.75 5.84697 7.02656 6.29706 7.51885C6.74714 8.01113 7 8.67881 7 9.375Z" stroke="#FEBA12" stroke-width="2" stroke-linecap="round" stroke-linejoin="round"/>
</svg>
