<svg id="visual" viewBox="0 0 900 380" width="900" height="380" xmlns="http://www.w3.org/2000/svg" xmlns:xlink="http://www.w3.org/1999/xlink" version="1.1"><rect x="0" y="0" width="900" height="380" fill="#fdfdfd"></rect><defs><linearGradient id="grad1_0" x1="57.8%" y1="0%" x2="100%" y2="100%"><stop offset="2.631578947368425%" stop-color="#fdfdfd" stop-opacity="1"></stop><stop offset="97.36842105263156%" stop-color="#fdfdfd" stop-opacity="1"></stop></linearGradient></defs><defs><linearGradient id="grad2_0" x1="0%" y1="0%" x2="42.2%" y2="100%"><stop offset="2.631578947368425%" stop-color="#fdfdfd" stop-opacity="1"></stop><stop offset="97.36842105263156%" stop-color="#fdfdfd" stop-opacity="1"></stop></linearGradient></defs><g transform="translate(900, 0)"><path d="M0 209C-24.2 196.9 -48.4 184.7 -72.3 174.6C-96.3 164.5 -119.9 156.4 -141.4 141.4C-162.9 126.5 -182.2 104.7 -193.1 80C-204 55.3 -206.5 27.6 -209 0L0 0Z" fill="#d7d7d7"></path></g><g transform="translate(0, 380)"><path d="M0 -209C28.5 -207.3 57.1 -205.7 80 -193.1C102.9 -180.5 120.1 -157 135.8 -135.8C151.4 -114.6 165.4 -95.7 177.4 -73.5C189.3 -51.2 199.2 -25.6 209 0L0 0Z" fill="#d7d7d7"></path></g></svg>