<svg id="visual" viewBox="0 0 900 450" width="900" height="450" xmlns="http://www.w3.org/2000/svg" xmlns:xlink="http://www.w3.org/1999/xlink" version="1.1"><rect x="0" y="0" width="900" height="450" fill="#fdfdfd"></rect><defs><linearGradient id="grad1_0" x1="50%" y1="0%" x2="100%" y2="100%"><stop offset="10%" stop-color="#fdfdfd" stop-opacity="1"></stop><stop offset="90%" stop-color="#fdfdfd" stop-opacity="1"></stop></linearGradient></defs><defs><linearGradient id="grad2_0" x1="0%" y1="0%" x2="50%" y2="100%"><stop offset="10%" stop-color="#fdfdfd" stop-opacity="1"></stop><stop offset="90%" stop-color="#fdfdfd" stop-opacity="1"></stop></linearGradient></defs><g transform="translate(900, 0)"><path d="M0 247.5C-26.5 227.3 -53 207.1 -80.7 194.9C-108.5 182.8 -137.4 178.8 -164 164C-190.7 149.3 -215.1 123.8 -228.7 94.7C-242.2 65.6 -244.8 32.8 -247.5 0L0 0Z" fill="#d7d7d7"></path></g><g transform="translate(0, 450)"><path d="M0 -247.5C29.8 -239.2 59.6 -230.9 91.5 -220.8C123.4 -210.7 157.4 -198.9 175 -175C192.6 -151.2 193.9 -115.4 203.3 -84.2C212.6 -53 230.1 -26.5 247.5 0L0 0Z" fill="#d7d7d7"></path></g></svg>