<?xml version="1.0" standalone="no"?>
<!DOCTYPE svg PUBLIC "-//W3C//DTD SVG 20010904//EN"
 "http://www.w3.org/TR/2001/REC-SVG-20010904/DTD/svg10.dtd">
<svg version="1.0" xmlns="http://www.w3.org/2000/svg"
 width="854.000000pt" height="358.000000pt" viewBox="0 0 854.000000 358.000000"
 preserveAspectRatio="xMidYMid meet">

<g transform="translate(0.000000,358.000000) scale(0.100000,-0.100000)"
fill="#000000" stroke="none">
<path d="M1339 3206 c0 -1 -9 -73 -18 -161 -18 -165 -17 -175 22 -175 13 0 17
9 17 43 0 53 8 64 45 69 20 2 34 11 42 29 16 33 21 155 7 169 -8 8 -110 31
-115 26z m71 -85 c0 -59 -11 -101 -26 -101 -11 0 -13 12 -8 58 7 70 11 82 24
82 5 0 10 -17 10 -39z"/>
<path d="M1008 3179 c-11 -6 -18 -22 -18 -42 0 -55 36 -245 50 -262 18 -22 76
-19 101 6 33 33 12 110 -26 95 -12 -4 -16 -15 -13 -38 4 -37 -19 -51 -26 -16
-22 96 -36 212 -27 221 7 7 12 5 16 -6 3 -9 7 -24 10 -33 3 -9 14 -14 27 -12
20 3 23 8 20 38 -2 19 -8 41 -14 48 -12 14 -76 16 -100 1z"/>
<path d="M1643 3139 c-17 -6 -31 -36 -64 -139 -47 -142 -47 -153 6 -179 25
-12 32 -12 54 0 31 17 51 76 31 89 -20 12 -37 2 -44 -26 -6 -24 -20 -31 -30
-15 -4 5 11 58 32 117 39 113 66 147 60 78 -3 -33 0 -39 18 -42 28 -4 48 46
34 83 -5 14 -11 25 -12 25 -2 0 -17 4 -33 9 -17 4 -40 5 -52 0z"/>
<path d="M744 3095 c-7 -18 -1 -35 61 -182 35 -84 52 -113 65 -113 10 0 20 6
23 13 6 15 -101 278 -117 289 -17 12 -26 9 -32 -7z"/>
<path d="M1210 2900 c0 -16 5 -21 23 -18 12 2 22 10 22 18 0 8 -10 16 -22 18
-18 3 -23 -2 -23 -18z"/>
<path d="M1447 2903 c-15 -14 -7 -43 12 -43 26 0 36 17 21 35 -14 16 -23 19
-33 8z"/>
<path d="M943 2869 c-16 -16 -5 -39 17 -39 20 0 30 17 22 38 -5 15 -24 16 -39
1z"/>
<path d="M1045 2683 c-408 -87 -698 -445 -698 -863 0 -335 173 -620 476 -785
90 -49 97 -61 97 -162 l0 -83 -31 0 c-21 0 -40 -10 -61 -30 -28 -29 -29 -34
-24 -88 3 -31 5 -65 5 -74 0 -10 -1 -45 -1 -78 0 -33 1 -68 1 -77 0 -10 -2
-44 -5 -75 -5 -54 -4 -59 24 -88 25 -25 39 -30 76 -30 45 0 46 -1 46 -32 0
-60 19 -105 60 -142 50 -45 73 -51 195 -51 115 0 159 16 202 72 20 26 28 50
31 94 l4 59 44 0 c84 0 138 86 100 161 -10 20 -13 36 -7 43 20 24 23 84 7 117
-12 25 -13 35 -4 46 6 8 12 36 12 62 1 58 -24 99 -64 108 -27 5 -30 10 -30 42
0 40 -14 61 -41 61 -20 0 -29 -20 -29 -66 l0 -34 -224 0 -224 0 -4 104 c-3
101 -4 106 -33 136 -16 18 -60 47 -96 65 -314 159 -492 527 -425 877 31 159
96 286 210 406 165 173 353 254 591 254 240 0 429 -82 597 -260 257 -272 291
-692 83 -1007 -47 -70 -141 -168 -207 -213 -119 -82 -299 -147 -390 -140 l-43
3 -6 160 c-5 155 -7 163 -46 275 -54 151 -116 266 -153 285 -44 23 -75 19
-193 -25 -84 -31 -113 -38 -127 -30 -13 7 -29 41 -46 95 l-26 85 37 105 37
105 73 40 c68 37 77 40 127 34 40 -5 80 0 161 20 60 14 116 26 125 26 10 0 60
-40 112 -88 52 -49 105 -94 117 -100 12 -7 51 -12 86 -12 84 0 94 -11 78 -83
-9 -43 -8 -77 9 -199 11 -81 17 -154 14 -162 -3 -8 -22 -21 -42 -29 -60 -24
-85 -58 -135 -187 -49 -127 -50 -150 -7 -150 13 0 30 29 65 118 52 131 63 146
111 162 46 16 74 54 74 102 0 22 -7 96 -16 164 -13 95 -14 135 -6 176 8 40 7
60 -3 83 -23 55 -49 69 -133 74 l-76 3 -100 93 c-54 52 -110 96 -122 99 -13 4
-81 -7 -152 -23 -109 -25 -133 -28 -168 -19 -38 11 -46 9 -105 -22 -137 -70
-139 -73 -187 -205 l-43 -120 27 -95 c33 -113 70 -160 125 -160 19 0 85 18
147 41 90 33 115 39 127 29 30 -25 88 -145 131 -273 l45 -132 -3 -138 -3 -139
34 -30 c32 -29 37 -30 95 -25 354 35 661 303 757 662 31 114 31 317 0 430 -89
331 -353 582 -683 649 -96 20 -260 19 -353 -1z m473 -1965 c15 -15 15 -61 0
-76 -7 -7 -45 -12 -99 -12 -90 0 -107 -8 -93 -45 5 -12 25 -15 93 -15 94 0
111 -8 111 -50 0 -48 -8 -50 -251 -50 -200 0 -228 -2 -233 -16 -15 -40 6 -44
238 -44 159 0 225 -3 234 -12 15 -15 15 -61 0 -76 -14 -14 -614 -17 -636 -3
-8 5 -12 23 -10 47 3 39 3 39 53 44 45 5 50 7 50 30 0 21 -5 25 -30 28 -73 6
-76 9 -73 55 l3 42 175 5 175 5 0 25 0 25 -175 6 c-96 3 -176 6 -177 7 -6 4
-2 79 4 85 3 4 146 7 318 7 228 0 314 -3 323 -12z m-138 -498 c0 -49 -25 -97
-60 -115 -26 -13 -54 -16 -137 -13 -104 3 -105 3 -134 36 -23 25 -29 42 -29
77 l0 45 180 0 180 0 0 -30z"/>
<path d="M2993 1970 c-17 -10 -37 -28 -42 -39 -7 -13 -11 -124 -11 -309 0
-275 1 -291 20 -315 57 -72 216 -57 257 24 7 13 13 59 13 102 l0 77 -55 0 -54
0 -3 -66 c-3 -70 -18 -94 -52 -81 -14 6 -16 34 -16 260 0 246 4 277 31 277 24
0 39 -35 39 -91 l0 -59 55 0 55 0 0 70 c0 90 -17 132 -63 153 -48 23 -134 22
-174 -3z"/>
<path d="M3708 1974 c-55 -29 -58 -48 -58 -349 0 -243 2 -280 17 -306 32 -54
139 -76 209 -43 49 24 64 59 64 154 l0 80 -55 0 -54 0 -3 -72 c-3 -68 -5 -73
-27 -76 -13 -2 -28 2 -32 10 -5 7 -9 124 -9 260 0 240 1 248 21 258 35 19 49
-3 49 -76 l0 -64 55 0 55 0 0 74 c0 92 -10 120 -52 146 -40 24 -139 27 -180 4z"/>
<path d="M5273 1970 c-17 -10 -37 -28 -42 -39 -7 -13 -11 -123 -11 -306 0
-272 1 -288 20 -315 54 -75 215 -62 257 21 7 13 13 59 13 102 l0 77 -55 0 -54
0 -3 -66 c-3 -70 -18 -94 -52 -81 -14 6 -16 34 -16 260 0 246 4 277 31 277 24
0 39 -35 39 -91 l0 -59 55 0 55 0 0 70 c0 91 -19 136 -64 155 -51 21 -134 19
-173 -5z"/>
<path d="M5632 1975 c-58 -25 -62 -51 -62 -352 0 -193 4 -275 13 -292 19 -38
62 -63 115 -69 64 -6 116 12 142 48 19 27 20 43 20 317 0 316 0 317 -60 348
-36 19 -125 19 -168 0z m106 -87 c9 -9 12 -82 12 -265 0 -226 -2 -254 -16
-260 -9 -3 -24 -2 -33 4 -14 9 -16 42 -19 256 -2 213 0 247 14 261 19 19 26
20 42 4z"/>
<path d="M2750 1625 l0 -355 55 0 55 0 0 355 0 355 -55 0 -55 0 0 -355z"/>
<path d="M3300 1625 l0 -355 55 0 55 0 0 114 0 113 51 6 c110 13 129 50 129
243 0 211 -18 234 -190 234 l-100 0 0 -355z m164 259 c13 -12 16 -40 16 -135
0 -132 -8 -159 -45 -159 l-25 0 0 155 c0 146 1 155 19 155 11 0 27 -7 35 -16z"/>
<path d="M4220 1625 l0 -355 55 0 55 0 0 160 0 160 35 0 35 0 0 -160 0 -160
55 0 55 0 0 355 0 355 -55 0 -54 0 -3 -147 -3 -148 -32 -3 -33 -3 0 150 0 151
-55 0 -55 0 0 -355z"/>
<path d="M4570 1941 c0 -40 0 -40 43 -43 l42 -3 3 -312 2 -313 55 0 55 0 0
315 0 315 45 0 45 0 0 40 0 40 -145 0 -145 0 0 -39z"/>
<path d="M4920 1625 l0 -355 55 0 55 0 0 355 0 355 -55 0 -55 0 0 -355z"/>
<path d="M5940 1625 l0 -355 35 0 35 0 0 168 c0 94 4 160 9 152 4 -8 25 -84
46 -167 l37 -153 49 0 c27 0 49 3 49 6 0 14 71 328 75 333 3 2 5 -73 5 -167
l0 -172 55 0 55 0 0 355 0 355 -59 0 c-38 0 -60 -4 -63 -12 -3 -7 -25 -113
-49 -235 -24 -123 -46 -223 -49 -223 -3 0 -27 90 -53 200 -73 303 -59 270
-122 270 l-55 0 0 -355z"/>
<path d="M6470 1625 l0 -355 40 0 40 0 2 163 3 162 41 -160 41 -160 48 0 48 0
36 167 c20 91 39 170 44 174 4 4 7 -72 7 -169 l0 -177 55 0 55 0 0 355 0 355
-64 0 -63 0 -37 -187 c-55 -277 -58 -287 -65 -275 -4 6 -31 113 -61 236 l-55
226 -57 0 -58 0 0 -355z"/>
<path d="M7000 1665 c0 -357 1 -361 70 -389 51 -20 99 -20 150 0 69 28 70 32
70 389 l0 315 -55 0 -55 0 -2 -307 -3 -308 -30 0 -30 0 -3 308 -2 307 -55 0
-55 0 0 -315z"/>
<path d="M7360 1626 l0 -356 40 0 40 0 2 183 3 182 61 -180 61 -180 41 -3 42
-3 0 355 0 356 -35 0 -35 0 0 -177 c0 -97 -3 -173 -7 -169 -5 4 -33 82 -64
174 l-56 167 -46 3 -47 3 0 -355z"/>
<path d="M7730 1625 l0 -355 55 0 55 0 0 355 0 355 -55 0 -55 0 0 -355z"/>
<path d="M7900 1940 l0 -40 45 0 45 0 0 -315 0 -315 55 0 55 0 2 313 3 312 43
3 c42 3 42 3 42 43 l0 39 -145 0 -145 0 0 -40z"/>
<path d="M8230 1942 c0 -21 23 -120 50 -219 49 -176 50 -185 50 -317 l0 -136
55 0 55 0 0 120 c0 110 4 137 45 300 26 105 45 202 45 235 l0 55 -50 0 -50 0
0 -44 c0 -55 -30 -190 -40 -179 -10 11 -40 157 -40 193 0 30 0 30 -60 30 l-60
0 0 -38z"/>
<path d="M3990 1535 l0 -45 85 0 85 0 0 45 0 45 -85 0 -85 0 0 -45z"/>
<path d="M2778 898 c-28 -7 -38 -15 -38 -29 0 -16 6 -19 28 -17 l27 3 3 -333
c2 -324 3 -332 22 -332 20 0 20 7 20 360 0 282 -3 360 -12 359 -7 -1 -30 -6
-50 -11z"/>
<path d="M3005 898 c-55 -30 -55 -29 -55 -356 l0 -304 29 -29 c24 -23 38 -29
75 -29 60 0 92 16 111 56 14 29 15 75 13 325 l-3 291 -33 29 c-25 22 -42 29
-75 29 -23 0 -51 -6 -62 -12z m99 -49 l26 -20 0 -285 c0 -271 -1 -285 -20
-304 -25 -25 -61 -26 -91 -1 l-24 19 0 287 0 287 24 19 c30 24 52 24 85 -2z"/>
<path d="M6940 897 c-14 -7 -33 -28 -43 -47 -16 -32 -17 -64 -15 -323 l3 -289
33 -29 c27 -24 41 -29 83 -29 43 0 55 5 80 29 28 28 29 33 29 120 0 84 -1 91
-20 91 -18 0 -20 -7 -20 -74 0 -59 -4 -78 -21 -100 -26 -33 -70 -35 -99 -4
-19 21 -20 34 -20 304 l0 283 26 20 c33 26 55 26 85 2 21 -17 24 -29 28 -105
3 -77 5 -86 22 -86 17 0 19 8 19 91 0 50 -5 99 -10 110 -24 43 -108 62 -160
36z"/>
<path d="M3370 695 c0 -130 4 -205 10 -205 6 0 10 49 10 128 0 118 2 130 21
148 21 19 21 18 40 -5 16 -20 19 -40 19 -147 0 -76 4 -124 10 -124 6 0 10 53
10 138 0 162 -6 178 -64 169 l-36 -6 0 55 c0 30 -4 54 -10 54 -6 0 -10 -75
-10 -205z"/>
<path d="M4059 871 c-26 -26 -29 -36 -29 -90 0 -58 -1 -61 -25 -61 -18 0 -25
-5 -25 -20 0 -15 7 -20 25 -20 l25 0 0 -245 c0 -238 1 -245 20 -245 19 0 20 7
20 245 l0 245 30 0 c23 0 30 5 30 19 0 14 -8 21 -27 23 -23 2 -29 8 -31 34 -2
18 4 48 12 68 12 28 21 36 40 36 19 0 26 5 26 20 0 32 -55 27 -91 -9z"/>
<path d="M4330 545 c0 -347 0 -355 20 -355 18 0 20 8 22 158 l3 157 32 3 c28
3 33 0 41 -30 5 -18 24 -90 42 -160 27 -106 36 -128 52 -128 27 0 23 35 -17
185 l-35 130 24 20 c13 11 29 30 35 42 15 29 14 244 -1 278 -18 40 -57 55
-143 55 l-75 0 0 -355z m162 298 c16 -14 18 -33 18 -138 0 -144 -8 -158 -88
-159 l-47 -1 -3 158 -3 157 52 0 c35 0 59 -6 71 -17z"/>
<path d="M5960 794 l0 -105 -26 20 c-33 26 -84 27 -113 4 -32 -26 -41 -80 -41
-258 0 -178 9 -232 41 -257 29 -24 80 -23 113 3 21 17 26 18 26 5 0 -9 8 -16
20 -16 20 0 20 7 20 355 0 348 0 355 -20 355 -19 0 -20 -7 -20 -106z m-33
-128 l28 -24 3 -170 c4 -193 -6 -236 -54 -248 -22 -6 -32 -2 -51 20 -22 26
-23 33 -23 212 0 183 0 185 25 209 30 31 37 31 72 1z"/>
<path d="M7210 810 c0 -47 2 -50 25 -50 23 0 25 3 25 50 0 47 -2 50 -25 50
-23 0 -25 -3 -25 -50z"/>
<path d="M3270 825 c0 -16 -6 -25 -15 -25 -19 0 -19 -16 0 -24 11 -4 15 -33
17 -143 l3 -138 28 -3 c15 -2 27 1 27 7 0 6 -6 11 -14 11 -22 0 -26 24 -26
147 0 106 1 115 20 120 11 3 20 9 20 14 0 5 -9 9 -20 9 -15 0 -20 7 -20 25 0
14 -4 25 -10 25 -5 0 -10 -11 -10 -25z"/>
<path d="M7370 765 c0 -38 -3 -45 -20 -45 -13 0 -20 -7 -20 -20 0 -13 7 -20
20 -20 19 0 20 -7 20 -225 0 -212 1 -226 20 -245 24 -24 80 -27 80 -5 0 9 -11
20 -24 24 -32 13 -36 41 -36 262 l0 189 30 0 c23 0 30 5 30 19 0 14 -8 21 -27
23 -25 3 -28 7 -31 46 -3 34 -7 42 -23 42 -16 0 -19 -7 -19 -45z"/>
<path d="M3730 702 l-30 -30 0 -217 0 -217 29 -29 c25 -25 37 -29 81 -29 44 0
56 4 81 29 l29 29 0 216 c0 211 0 215 -23 242 -19 22 -34 28 -80 32 -52 4 -58
2 -87 -26z m121 -31 c24 -19 24 -21 24 -214 0 -178 -2 -197 -19 -216 -27 -30
-70 -27 -95 5 -20 25 -21 40 -21 211 0 182 0 184 25 208 29 30 55 32 86 6z"/>
<path d="M4687 710 c-27 -21 -47 -74 -47 -122 0 -23 4 -28 24 -28 21 0 24 5
28 52 6 55 24 78 64 78 41 0 64 -44 64 -121 l0 -67 -65 -22 c-103 -34 -109
-43 -113 -147 -4 -85 -2 -91 23 -121 33 -39 87 -44 129 -11 21 17 26 18 26 5
0 -9 8 -16 20 -16 19 0 20 7 20 241 l0 241 -29 29 c-37 37 -104 41 -144 9z
m133 -329 c0 -43 -5 -92 -11 -110 -18 -52 -64 -66 -99 -31 -16 16 -20 33 -20
88 0 37 4 73 8 80 8 11 94 50 115 52 4 0 7 -35 7 -79z"/>
<path d="M5055 718 c-11 -6 -23 -16 -27 -22 -4 -6 -9 -4 -14 7 -3 9 -15 17
-25 17 -18 0 -19 -12 -19 -265 l0 -265 24 0 25 0 3 231 c3 229 3 231 27 250
13 10 29 19 36 19 7 0 23 -9 36 -19 24 -19 24 -21 27 -250 3 -219 4 -231 22
-231 18 0 19 12 22 226 l3 226 28 24 c35 30 42 30 72 -1 l25 -24 0 -226 0
-225 25 0 25 0 0 218 c0 119 -5 234 -10 254 -19 68 -93 90 -147 44 l-28 -24
-22 24 c-24 26 -73 32 -108 12z"/>
<path d="M5507 710 c-27 -21 -47 -74 -47 -122 0 -23 4 -28 25 -28 23 0 25 4
25 45 0 79 66 114 109 59 17 -21 21 -41 21 -95 l0 -67 -65 -22 c-100 -33 -109
-44 -113 -134 -2 -42 -1 -87 2 -101 16 -62 97 -86 150 -44 21 17 26 18 26 5 0
-9 8 -16 20 -16 19 0 20 7 20 241 l0 241 -29 29 c-37 37 -104 41 -144 9z m133
-329 c0 -110 -23 -160 -72 -161 -39 0 -58 36 -58 108 0 37 4 73 8 80 8 11 94
50 115 52 4 0 7 -36 7 -79z"/>
<path d="M6153 718 c-29 -14 -53 -67 -53 -117 0 -37 2 -41 25 -41 23 0 25 4
25 45 0 51 25 85 63 85 41 0 61 -34 65 -109 5 -77 2 -80 -77 -106 -87 -28
-101 -49 -101 -145 0 -84 15 -132 45 -144 33 -12 83 -6 109 15 21 17 26 18 26
5 0 -9 8 -16 20 -16 19 0 20 7 20 241 l0 241 -29 29 c-24 23 -38 29 -73 28
-24 0 -53 -5 -65 -11z m125 -364 c-4 -80 -7 -89 -32 -111 -33 -28 -47 -29 -77
-4 -18 14 -23 30 -26 77 -5 78 9 103 72 124 28 10 54 14 59 9 5 -4 7 -47 4
-95z"/>
<path d="M6496 709 c-21 -17 -26 -18 -26 -5 0 9 -8 16 -20 16 -19 0 -20 -7
-20 -265 l0 -265 25 0 25 0 0 225 0 226 25 24 c29 30 49 31 75 5 19 -19 20
-33 20 -250 l0 -230 25 0 25 0 0 239 0 239 -26 31 c-32 38 -87 43 -128 10z"/>
<path d="M7210 455 l0 -265 25 0 25 0 0 265 0 265 -25 0 -25 0 0 -265z"/>
<path d="M7500 708 c0 -42 91 -523 100 -528 7 -5 7 -22 -1 -58 -12 -57 -36
-82 -81 -82 -21 0 -28 -5 -28 -20 0 -41 101 -16 126 32 16 30 124 589 124 641
0 20 -5 27 -19 27 -12 0 -20 -9 -24 -27 -2 -16 -20 -113 -38 -216 -18 -104
-35 -182 -39 -175 -4 7 -22 104 -40 216 -32 196 -34 202 -56 202 -13 0 -24 -6
-24 -12z"/>
</g>
</svg>
