<svg id="visual" viewBox="0 0 900 450" width="900" height="450" xmlns="http://www.w3.org/2000/svg" xmlns:xlink="http://www.w3.org/1999/xlink" version="1.1"><path d="M0 330L13.7 338.2C27.3 346.3 54.7 362.7 82 361.8C109.3 361 136.7 343 163.8 335.3C191 327.7 218 330.3 245.2 337.8C272.3 345.3 299.7 357.7 327 366.7C354.3 375.7 381.7 381.3 409 375.8C436.3 370.3 463.7 353.7 491 346.5C518.3 339.3 545.7 341.7 573 344.3C600.3 347 627.7 350 654.8 349.8C682 349.7 709 346.3 736.2 351C763.3 355.7 790.7 368.3 818 367.8C845.3 367.3 872.7 353.7 886.3 346.8L900 340L900 451L886.3 451C872.7 451 845.3 451 818 451C790.7 451 763.3 451 736.2 451C709 451 682 451 654.8 451C627.7 451 600.3 451 573 451C545.7 451 518.3 451 491 451C463.7 451 436.3 451 409 451C381.7 451 354.3 451 327 451C299.7 451 272.3 451 245.2 451C218 451 191 451 163.8 451C136.7 451 109.3 451 82 451C54.7 451 27.3 451 13.7 451L0 451Z" fill="#dfdfdf"></path><path d="M0 383L13.7 379.2C27.3 375.3 54.7 367.7 82 368.5C109.3 369.3 136.7 378.7 163.8 381.5C191 384.3 218 380.7 245.2 383.2C272.3 385.7 299.7 394.3 327 394.7C354.3 395 381.7 387 409 383.5C436.3 380 463.7 381 491 379.7C518.3 378.3 545.7 374.7 573 370.7C600.3 366.7 627.7 362.3 654.8 365.7C682 369 709 380 736.2 387.5C763.3 395 790.7 399 818 400.3C845.3 401.7 872.7 400.3 886.3 399.7L900 399L900 451L886.3 451C872.7 451 845.3 451 818 451C790.7 451 763.3 451 736.2 451C709 451 682 451 654.8 451C627.7 451 600.3 451 573 451C545.7 451 518.3 451 491 451C463.7 451 436.3 451 409 451C381.7 451 354.3 451 327 451C299.7 451 272.3 451 245.2 451C218 451 191 451 163.8 451C136.7 451 109.3 451 82 451C54.7 451 27.3 451 13.7 451L0 451Z" fill="#e8e8e8"></path><path d="M0 416L13.7 415.8C27.3 415.7 54.7 415.3 82 414.8C109.3 414.3 136.7 413.7 163.8 414C191 414.3 218 415.7 245.2 410.3C272.3 405 299.7 393 327 387.7C354.3 382.3 381.7 383.7 409 385C436.3 386.3 463.7 387.7 491 392.3C518.3 397 545.7 405 573 404.8C600.3 404.7 627.7 396.3 654.8 397.7C682 399 709 410 736.2 414.5C763.3 419 790.7 417 818 410.3C845.3 403.7 872.7 392.3 886.3 386.7L900 381L900 451L886.3 451C872.7 451 845.3 451 818 451C790.7 451 763.3 451 736.2 451C709 451 682 451 654.8 451C627.7 451 600.3 451 573 451C545.7 451 518.3 451 491 451C463.7 451 436.3 451 409 451C381.7 451 354.3 451 327 451C299.7 451 272.3 451 245.2 451C218 451 191 451 163.8 451C136.7 451 109.3 451 82 451C54.7 451 27.3 451 13.7 451L0 451Z" fill="#f0f0f0"></path><path d="M0 420L13.7 418C27.3 416 54.7 412 82 414.3C109.3 416.7 136.7 425.3 163.8 428.2C191 431 218 428 245.2 425C272.3 422 299.7 419 327 421C354.3 423 381.7 430 409 432.8C436.3 435.7 463.7 434.3 491 431.5C518.3 428.7 545.7 424.3 573 421.5C600.3 418.7 627.7 417.3 654.8 414.3C682 411.3 709 406.7 736.2 407C763.3 407.3 790.7 412.7 818 419.5C845.3 426.3 872.7 434.7 886.3 438.8L900 443L900 451L886.3 451C872.7 451 845.3 451 818 451C790.7 451 763.3 451 736.2 451C709 451 682 451 654.8 451C627.7 451 600.3 451 573 451C545.7 451 518.3 451 491 451C463.7 451 436.3 451 409 451C381.7 451 354.3 451 327 451C299.7 451 272.3 451 245.2 451C218 451 191 451 163.8 451C136.7 451 109.3 451 82 451C54.7 451 27.3 451 13.7 451L0 451Z" fill="#f9f9f9"></path></svg>