<svg xmlns="http://www.w3.org/2000/svg" version="1.1" xmlns:xlink="http://www.w3.org/1999/xlink" xmlns:svgjs="http://svgjs.dev/svgjs" width="1440" height="560" preserveAspectRatio="none" viewBox="0 0 1440 560"><g mask="url(&quot;#SvgjsMask1085&quot;)" fill="none"><rect width="1440" height="560" x="0" y="0" fill="rgba(239, 239, 239, 1)"></rect><path d="M0,387.523C94.708,394.175,186.506,461.28,275.905,429.317C369.276,395.934,448.59,312.669,475.947,217.358C502.563,124.629,445.182,32.196,416.311,-59.856C392.073,-137.134,378.91,-221.587,320.635,-277.832C264.312,-332.193,179.052,-332.596,105.624,-359.721C25.553,-389.3,-48.322,-467.527,-130.515,-444.492C-212.616,-421.483,-229.437,-311.533,-287.873,-249.443C-349.838,-183.604,-471.357,-159.11,-483.435,-69.507C-495.536,20.271,-383.166,75.461,-342.584,156.453C-304.091,233.275,-323.309,344.186,-252.073,392.234C-180.961,440.198,-85.565,381.513,0,387.523" fill="#b1b1b1"></path><path d="M1440 975.81C1519.9279999999999 982.6089999999999 1596.431 951.179 1667.5529999999999 914.0799999999999 1744.216 874.091 1831.5 833.8050000000001 1865.028 754.104 1898.391 674.796 1860.664 586.084 1840.745 502.382 1822.521 425.802 1799.799 351.93100000000004 1754.0720000000001 287.855 1704.84 218.86599999999999 1646.722 154.67700000000002 1568.808 121.32 1485.401 85.61099999999999 1390.04 67.86000000000001 1303.443 94.92899999999997 1217.394 121.827 1152.945 192.75900000000001 1102.101 267.209 1055.036 336.125 1032.965 417.34000000000003 1026.442 500.539 1020.227 579.808 1027.097 661.4300000000001 1065.745 730.917 1102.8890000000001 797.6990000000001 1172.091 835.533 1236.035 877.375 1300.51 919.5640000000001 1363.225 969.28 1440 975.81" fill="#ffffff"></path></g><defs><mask id="SvgjsMask1085"><rect width="1440" height="560" fill="#ffffff"></rect></mask></defs></svg>